HIERARCHY
ROOT SimulationBone
{
	OFFSET 0.000000 0.000000 0.000000
	CHANNELS 6 Xposition Yposition Zposition Zrotation Yrotation Xrotation 
	JOINT Hips
	{
		OFFSET 0.000000 0.000000 0.000000
		CHANNELS 6 Xposition Yposition Zposition Zrotation Yrotation Xrotation 
		JOINT RightUpLeg
		{
			OFFSET 0.103461 1.857828 10.548504
			CHANNELS 3 Zrotation Yrotation Xrotation
			JOINT RightLeg
			{
				OFFSET 43.500008 -0.000031 0.000006
				CHANNELS 3 Zrotation Yrotation Xrotation
				JOINT RightFoot
				{
					OFFSET 42.372200 0.000019 -0.000010
					CHANNELS 3 Zrotation Yrotation Xrotation
					JOINT RightToe
					{
						OFFSET 17.299999 -0.000000 0.000002
						CHANNELS 3 Zrotation Yrotation Xrotation
						End Site
						{
							OFFSET 0.000000 0.000000 0.000000
						}
					}
				}
			}
		}
		JOINT LeftUpLeg
		{
			OFFSET 0.103457 1.857829 -10.548504
			CHANNELS 3 Zrotation Yrotation Xrotation
			JOINT LeftLeg
			{
				OFFSET 43.500046 -0.000019 0.000011
				CHANNELS 3 Zrotation Yrotation Xrotation
				JOINT LeftFoot
				{
					OFFSET 42.372261 0.000000 0.000008
					CHANNELS 3 Zrotation Yrotation Xrotation
					JOINT LeftToe
					{
						OFFSET 17.299990 -0.000006 0.000008
						CHANNELS 3 Zrotation Yrotation Xrotation
						End Site
						{
							OFFSET 0.000000 0.000000 0.000000
						}
					}
				}
			}
		}
		JOINT Spine
		{
			OFFSET 6.901969 -2.603727 -0.000006
			CHANNELS 3 Zrotation Yrotation Xrotation
			JOINT Spine1
			{
				OFFSET 12.588100 -0.000002 0.000002
				CHANNELS 3 Zrotation Yrotation Xrotation
				JOINT Spine2
				{
					OFFSET 12.343195 0.000004 0.000008
					CHANNELS 3 Zrotation Yrotation Xrotation
					JOINT Neck
					{
						OFFSET 25.832905 -0.000008 -0.000002
						CHANNELS 3 Zrotation Yrotation Xrotation
						JOINT Head
						{
							OFFSET 11.766608 0.000010 -0.000008
							CHANNELS 3 Zrotation Yrotation Xrotation
							End Site
							{
								OFFSET 0.000000 0.000000 0.000000
							}
						}
					}
					JOINT RightShoulder
					{
						OFFSET 19.745903 -1.480370 6.000106
						CHANNELS 3 Zrotation Yrotation Xrotation
						JOINT RightArm
						{
							OFFSET 11.284119 -0.000006 -0.000014
							CHANNELS 3 Zrotation Yrotation Xrotation
							JOINT RightForeArm
							{
								OFFSET 33.000050 0.000004 0.000026
								CHANNELS 3 Zrotation Yrotation Xrotation
								JOINT RightHand
								{
									OFFSET 25.200020 0.000017 0.000004
									CHANNELS 3 Zrotation Yrotation Xrotation
									End Site
									{
										OFFSET 0.000000 0.000000 0.000000
									}
								}
							}
						}
					}
					JOINT LeftShoulder
					{
						OFFSET 19.746099 -1.480375 -6.000082
						CHANNELS 3 Zrotation Yrotation Xrotation
						JOINT LeftArm
						{
							OFFSET 11.284140 -0.000015 -0.000008
							CHANNELS 3 Zrotation Yrotation Xrotation
							JOINT LeftForeArm
							{
								OFFSET 33.000084 0.000016 0.000002
								CHANNELS 3 Zrotation Yrotation Xrotation
								JOINT LeftHand
								{
									OFFSET 25.199783 0.000142 0.000437
									CHANNELS 3 Zrotation Yrotation Xrotation
									End Site
									{
										OFFSET 0.000000 0.000000 0.000000
									}
								}
							}
						}
					}
				}
			}
		}
	}
}
MOTION
Frames: 15
Frame Time: 0.033333
-16.195104 0.000000 78.542780 180.000000 34.596862 180.000000 1.302243 92.225113 1.281542 96.034743 2.440157 -179.476745 -174.477660 -1.223405 179.428878 -14.812691 -2.076841 -2.605579 85.408620 1.870975 0.076793 21.454558 0.003113 0.000019 -175.877562 2.855999 179.421584 -11.771484 2.599776 -0.604275 81.392175 0.867041 2.217808 21.454555 -0.003085 0.000002 7.609359 0.139152 -0.146646 5.205516 0.284766 -0.286926 4.887411 0.282885 -0.288640 9.841289 -3.668853 -2.154498 -11.543304 5.712725 -4.290146 162.858839 -69.424659 16.363212 -23.608199 50.693954 34.904155 -33.107699 -17.212536 1.462174 6.593559 -4.817980 12.831265 -168.254675 75.895710 13.466983 -24.660828 -56.138011 -33.171415 -31.715119 15.123769 -1.271856 1.088008 12.237432 -1.627419 
-16.358134 0.000000 78.407649 180.000000 33.674398 180.000000 1.461562 92.204483 1.248498 96.144809 2.356770 -179.673848 -174.157352 -1.106398 -179.990374 -14.769806 -2.109877 -2.527421 85.427409 1.832169 0.147675 21.454560 0.003111 0.000018 -175.230293 2.956303 179.563447 -11.530235 2.592863 -0.248565 81.672076 0.646752 2.363632 21.454551 -0.003087 0.000000 7.539573 0.128043 -0.074102 5.066122 0.259249 -0.142568 4.748018 0.258248 -0.144127 9.934581 -3.636502 -2.078812 -11.407711 5.465893 -4.121883 162.912702 -69.461945 16.306049 -23.136801 50.976813 35.517639 -33.264360 -17.256709 1.464697 6.426151 -4.646938 13.009411 -168.546543 75.990308 13.168417 -25.117737 -56.170936 -32.765674 -31.579537 15.100705 -1.272503 1.109308 12.373119 -1.618116 
-16.497066 0.000000 78.283122 180.000000 32.652612 180.000000 1.634976 92.186333 1.227346 96.193441 2.232289 -179.883720 -173.937106 -0.960406 -179.338911 -14.768522 -2.144058 -2.434560 85.403627 1.782010 0.211149 21.454557 0.003106 0.000017 -174.660996 3.126200 179.534514 -11.335826 2.714741 0.250104 81.976224 0.314404 2.467510 21.454553 -0.003092 0.000000 7.454863 0.101913 -0.011605 4.896859 0.204272 -0.018927 4.578773 0.204013 -0.020161 9.953940 -3.584704 -1.986275 -11.099884 5.171003 -3.913682 163.043282 -69.514421 16.169296 -22.445402 51.159555 36.193080 -33.337494 -17.250527 1.465399 6.285920 -4.350083 13.357426 -168.575312 76.085971 13.139017 -25.330544 -56.328577 -32.807106 -31.433770 15.136024 -1.270619 1.216201 12.515918 -1.401647 
-16.618528 0.000000 78.166985 180.000000 31.542803 180.000000 1.790308 92.174217 1.202267 96.124765 2.091049 179.973812 -173.904430 -0.815598 -178.716353 -14.828006 -2.156076 -2.227242 85.359852 1.657007 0.297153 21.454562 0.003109 0.000017 -174.182378 3.273809 179.982083 -11.115110 2.709870 0.571321 82.251713 0.111657 2.585592 21.454551 -0.003082 0.000001 7.349450 0.078274 0.025055 4.686083 0.155533 0.053233 4.367990 0.155715 0.052284 9.845204 -3.546814 -1.850309 -10.686652 4.836807 -3.649724 163.436277 -69.506245 15.765205 -21.537282 51.156498 36.877438 -33.483483 -17.178508 1.464580 6.208501 -4.249321 13.677512 -168.507802 76.092890 13.207984 -25.247424 -56.453914 -33.052583 -31.379822 15.173810 -1.268218 1.232874 12.482999 -1.497040 
-16.724847 0.000000 78.057008 180.000000 30.348127 180.000000 1.957753 92.159813 1.169635 96.020477 1.931800 179.892953 -173.913391 -0.652103 -178.151783 -14.868880 -2.116302 -1.910417 85.318427 1.457968 0.394145 21.454557 0.003111 0.000018 -173.702598 3.404402 -179.259380 -10.880353 2.619949 0.800515 82.533574 -0.021187 2.725571 21.454553 -0.003088 0.000000 7.238033 0.059368 0.049410 4.463272 0.116855 0.101050 4.145180 0.117322 0.100334 9.737735 -3.662738 -1.686478 -10.359636 4.590075 -3.401140 163.890799 -69.424768 15.301034 -20.539371 50.985395 37.618349 -33.528292 -17.057834 1.462489 6.069865 -4.426173 13.750095 -168.390090 76.003797 13.328417 -24.855157 -56.513371 -33.455462 -31.402775 15.123757 -1.265466 1.355322 12.787527 -1.519737 
-16.818942 0.000000 77.943735 180.000000 29.082097 180.000000 2.145753 92.134132 1.119070 95.941672 1.748234 179.784249 -173.881385 -0.459792 -177.637101 -14.889136 -2.062588 -1.543021 85.291700 1.225756 0.499322 21.454558 0.003111 0.000018 -173.212026 3.581697 -178.595445 -10.706387 2.600580 1.105181 82.875685 -0.211195 2.858670 21.454553 -0.003094 0.000000 7.131975 0.040292 0.081195 4.251132 0.077660 0.163810 3.933042 0.078506 0.163336 9.735892 -3.943255 -1.484119 -10.243757 4.429684 -3.158425 164.434031 -69.313019 14.746529 -19.639111 50.740676 38.402435 -33.440364 -16.989317 1.459400 6.121268 -4.460408 13.431062 -168.231534 75.891796 13.490619 -24.172955 -56.553768 -33.983968 -31.373856 14.996522 -1.256700 1.204139 12.702776 -1.587699 
-16.908116 0.000000 77.816852 180.000000 27.771467 180.000000 2.332336 92.083908 1.033677 95.915666 1.489659 179.703743 -173.853272 -0.194901 -176.997099 -14.997374 -2.046539 -1.195369 85.286960 1.009147 0.612215 21.454560 0.003111 0.000017 -172.744800 3.887599 -178.195360 -10.713740 2.743343 1.587951 83.370785 -0.543901 2.936751 21.454553 -0.003095 -0.000001 7.043597 0.007200 0.113532 4.074354 0.010497 0.227250 3.756259 0.011730 0.227179 9.829010 -4.164592 -1.241308 -10.333368 4.136415 -2.835265 165.026127 -69.226194 14.140376 -18.866383 50.557637 39.026728 -33.220660 -17.071373 1.455589 6.409965 -4.344401 12.916546 -168.112990 75.813508 13.611893 -23.395790 -56.672678 -34.599153 -31.141100 14.870580 -1.243895 1.107147 12.479101 -1.592059 
-16.995526 0.000000 77.671011 180.000000 26.433465 180.000000 2.482220 92.013161 0.895016 95.957403 1.167182 179.639689 -173.893638 0.141403 -176.354405 -15.315466 -2.051917 -0.802318 85.308660 0.767911 0.757209 21.454560 0.003110 0.000017 -172.580603 4.231096 -177.679134 -11.443452 2.744308 1.992830 84.113445 -0.805019 3.115889 21.454555 -0.003090 0.000000 6.985704 -0.035959 0.155661 3.958477 -0.077111 0.310020 3.640384 -0.075370 0.310473 9.965126 -4.286862 -0.978231 -10.627867 3.696547 -2.444697 165.406145 -69.201141 13.750182 -18.236269 50.398514 39.390104 -32.771801 -17.113814 1.448505 6.646442 -4.310272 12.051146 -168.509018 75.843711 13.206807 -22.424650 -56.932495 -35.143714 -30.774794 14.740832 -1.228228 1.107246 12.430102 -1.618007 
-17.081716 0.000000 77.495696 180.000000 25.080583 180.000000 2.567221 91.906631 0.694705 96.060458 0.764902 179.538880 -174.053301 0.592696 -175.700988 -15.914838 -2.059321 -0.401296 85.377044 0.522742 0.911595 21.454558 0.003112 0.000017 -172.904668 4.755201 -177.987490 -13.161075 3.003040 2.815767 85.242762 -1.336278 3.469868 21.454553 -0.003089 0.000001 6.968088 -0.093910 0.210168 3.922978 -0.194754 0.417068 3.604885 -0.192367 0.418236 10.001797 -4.308453 -0.647116 -11.064662 3.104127 -1.934648 165.520824 -69.210341 13.631470 -17.757085 50.278146 38.970136 -32.431924 -16.890026 1.426817 6.907343 -4.236422 11.185581 -168.796173 75.824676 12.913087 -21.682523 -57.083815 -35.523018 -30.139832 14.472268 -1.198510 1.168984 12.309033 -1.565012 
-17.169843 0.000000 77.289936 180.000000 23.716160 180.000000 2.574318 91.780197 0.447403 96.239876 0.363007 179.374798 -174.266362 1.062304 -175.086271 -16.686231 -2.088197 0.007141 85.490452 0.274962 1.077766 21.454558 0.003109 0.000017 -173.854201 5.371799 -177.820710 -16.138282 3.235450 3.291119 86.416633 -1.630931 3.827788 21.454553 -0.003090 0.000001 7.006308 -0.143734 0.274386 3.999086 -0.296699 0.543691 3.681002 -0.293544 0.545477 9.928149 -4.368531 -0.217821 -11.693274 2.489686 -1.322009 165.733721 -69.056457 13.418574 -17.421523 50.049239 38.158300 -32.221288 -16.675962 1.408581 7.302041 -4.038306 9.782482 -168.693173 75.757111 13.018425 -21.569287 -57.082087 -35.953351 -29.040120 14.197836 -1.160015 1.321367 12.148891 -1.051703 
-17.261352 0.000000 77.054492 180.000000 22.341301 180.000000 2.492135 91.653313 0.177282 96.533273 0.003356 179.297449 -174.524242 1.457306 -174.473316 -17.636718 -2.170164 0.478828 85.606101 -0.007084 1.283015 21.454555 0.003106 0.000017 -175.657876 6.026991 -177.037848 -20.860482 3.325191 3.452809 87.081586 -1.676266 4.305327 21.454550 -0.003090 0.000000 7.117866 -0.184392 0.311773 4.221900 -0.379868 0.616682 3.903809 -0.376271 0.618964 9.721267 -4.149410 0.301619 -12.476350 1.689750 -0.535688 165.866035 -68.992116 13.284915 -17.226065 49.873464 37.547691 -32.280905 -16.860716 1.421704 7.987973 -3.663587 7.673756 -168.332198 75.583693 13.387786 -21.875426 -56.942413 -36.023743 -27.945709 13.938394 -1.123502 1.606569 11.813698 -0.601595 
-17.358367 0.000000 76.786156 180.000000 20.956622 180.000000 2.329551 91.450684 -0.128722 96.912090 -0.408889 179.282578 -174.846395 1.873595 -174.027182 -18.798533 -2.278846 1.093500 85.935459 -0.376125 1.554897 21.454557 0.003102 0.000017 -178.128492 6.836596 -175.132334 -26.943549 2.831850 3.051305 87.245189 -1.256776 5.083922 21.454551 -0.003088 -0.000000 7.295709 -0.230072 0.318664 4.577341 -0.472405 0.628057 4.259232 -0.468737 0.630899 9.306379 -3.940985 0.867046 -13.200598 0.964299 0.279515 165.958133 -69.037394 13.188163 -17.081892 49.815647 36.726006 -32.750849 -17.315125 1.460968 8.374000 -3.379484 4.614602 -168.162167 75.503916 13.561802 -22.203961 -56.819971 -35.630836 -27.144990 13.780848 -1.099420 1.954490 11.478701 -0.685606 
-17.462827 0.000000 76.481615 180.000000 19.562183 180.000000 2.096990 91.240753 -0.453710 97.212356 -0.707918 179.389504 -175.201346 2.104799 -173.433871 -19.792746 -2.497342 1.709540 86.409823 -0.739900 1.871727 21.454558 0.003113 0.000018 178.580077 7.870897 -173.934237 -34.153316 2.616831 2.773817 86.170056 -0.886305 5.779467 21.454551 -0.003095 -0.000001 7.496971 -0.246990 0.297924 4.979832 -0.506424 0.585031 4.661732 -0.503019 0.588075 8.610147 -3.844270 1.403341 -13.861191 0.411679 0.998900 165.743529 -69.049777 13.408822 -16.640253 49.910019 35.224949 -33.943878 -18.002825 1.531594 8.603018 -3.425980 1.520271 -167.997764 75.552015 13.729997 -22.526353 -56.754562 -35.164669 -26.642256 13.845273 -1.095020 2.183685 11.353256 -0.569627 
-17.574851 0.000000 76.139840 180.000000 18.163285 180.000000 1.824103 91.071243 -0.705230 97.449134 -0.905448 179.596783 -175.461850 2.130003 -173.059208 -20.451634 -2.648366 2.465374 86.833998 -1.208200 2.150959 21.454557 0.003115 0.000018 175.005825 8.818497 -173.017503 -41.349357 2.031596 2.375091 83.715265 -0.204076 7.083783 21.454551 -0.003092 0.000000 7.710331 -0.253614 0.260393 5.406741 -0.518991 0.508726 5.088626 -0.516047 0.511849 7.744698 -3.768832 1.847602 -14.452861 0.147149 1.523994 165.647824 -69.122553 13.504411 -16.157627 50.066605 33.299324 -36.020823 -18.783963 1.630569 8.649677 -3.901362 -2.227714 -167.838826 75.619401 13.892604 -22.652189 -56.755580 -34.758730 -26.571931 14.158856 -1.113929 2.094886 11.529193 -0.021404 
-17.695440 0.000000 75.760597 180.000000 16.766924 180.000000 1.595103 90.930382 -0.892961 97.731343 -1.050688 179.750891 -175.458489 1.991700 -172.662387 -20.719075 -2.886059 3.167573 87.152763 -1.651311 2.352964 21.454562 0.003108 0.000018 171.735476 9.608792 -173.351717 -47.801810 1.801513 2.072368 81.978799 0.248264 7.637317 21.454545 -0.003099 -0.000001 7.933358 -0.267976 0.256106 5.852728 -0.548440 0.498406 5.534637 -0.545561 0.501704 6.718296 -3.625152 2.105543 -14.624728 0.133580 1.772927 165.406186 -69.199331 13.750130 -15.371506 50.133240 31.757911 -39.200276 -19.718305 1.771793 8.838284 -4.809389 -7.573945 -167.629248 75.364820 14.107483 -22.510613 -56.605251 -34.173397 -26.866122 14.349077 -1.131060 2.085990 12.090223 0.479149 
